<svg xmlns="http://www.w3.org/2000/svg" xmlns:xlink="http://www.w3.org/1999/xlink" width="1140" height="287.357" viewBox="0 0 1140 287.357">
  <defs>
    <linearGradient id="linear-gradient" x1="1" y1="1" x2="0" y2="1" gradientUnits="objectBoundingBox">
      <stop offset="0" stop-color="#6c6c6c" stop-opacity="0.18"/>
      <stop offset="0.475" stop-color="#525252"/>
      <stop offset="1" stop-color="#363636" stop-opacity="0.161"/>
    </linearGradient>
  </defs>
  <g id="组_170011" data-name="组 170011" transform="translate(-390 -1143.264)">
    <rect id="矩形_151871" data-name="矩形 151871" width="1140" height="1" transform="translate(390 1286.264)" fill="url(#linear-gradient)"/>
    <g id="组_167839" data-name="组 167839" transform="translate(44)">
      <circle id="椭圆_164" data-name="椭圆 164" cx="5" cy="5" r="5" transform="translate(472.5 1282.264)" fill="#162789"/>
      <rect id="矩形_151872" data-name="矩形 151872" width="235" height="1" transform="translate(360 1187.264)" fill="#162789"/>
      <text id="_2009_04_19" data-name="2009/04/19" transform="translate(408 1345.906)" fill="#162787" font-size="24" font-family="PingFang SC Bold, PingFang SC"><tspan x="0" y="0">2009/04/19</tspan></text>
      <circle id="椭圆_167" data-name="椭圆 167" cx="5" cy="5" r="5" transform="translate(472.5 1198.264)" fill="#162789"/>
      <g id="椭圆_165" data-name="椭圆 165" transform="translate(465.5 1275.264)" fill="none" stroke="#172787" stroke-width="1">
        <circle cx="12" cy="12" r="12" stroke="none"/>
        <circle cx="12" cy="12" r="11.5" fill="none"/>
      </g>
      <g id="椭圆_166" data-name="椭圆 166" transform="translate(456.5 1266.264)" fill="none" stroke="#6c6c6c" stroke-width="1">
        <circle cx="21" cy="21" r="21" stroke="none"/>
        <circle cx="21" cy="21" r="20.5" fill="none"/>
      </g>
      <path id="路径_97282" data-name="路径 97282" d="M66,0A33,33,0,0,0,33,33" transform="translate(411.5 1254.264)" fill="none" stroke="#6c6c6c" stroke-width="1"/>
      <path id="路径_97283" data-name="路径 97283" d="M-683,17856.689v-83.148" transform="translate(1160.5 -16569.926)" fill="none" stroke="#172787" stroke-width="1"/>
      <text id="上海交通大学上海高级金融学院_SAIF_" data-name="上海交通大学上海高级金融学院(SAIF)" transform="translate(360 1174)" fill="#666" font-size="14" font-family="SourceHanSansCN-Regular, Source Han Sans CN"><tspan x="0" y="0">上海交通大学上海高级金融学院(SAIF)</tspan></text>
    </g>
    <g id="组_168399" data-name="组 168399" transform="translate(6.5)">
      <path id="路径_97284" data-name="路径 97284" d="M33,33A33,33,0,0,0,66,0" transform="translate(972 1287.264)" fill="none" stroke="#6c6c6c" stroke-width="1"/>
      <rect id="矩形_151874" data-name="矩形 151874" width="174" height="1" transform="translate(917.5 1187.264)" fill="#162789"/>
      <text id="_2019_04_15" data-name="2019/04/15" transform="translate(935.5 1347.906)" fill="#162787" font-size="24" font-family="PingFang SC Bold, PingFang SC"><tspan x="0" y="0">2019/04/15</tspan></text>
      <circle id="椭圆_168" data-name="椭圆 168" cx="5" cy="5" r="5" transform="translate(1000 1282.264)" fill="#162789"/>
      <circle id="椭圆_169" data-name="椭圆 169" cx="5" cy="5" r="5" transform="translate(1000 1198.264)" fill="#162789"/>
      <g id="椭圆_170" data-name="椭圆 170" transform="translate(993 1275.264)" fill="none" stroke="#172787" stroke-width="1">
        <circle cx="12" cy="12" r="12" stroke="none"/>
        <circle cx="12" cy="12" r="11.5" fill="none"/>
      </g>
      <g id="椭圆_171" data-name="椭圆 171" transform="translate(984 1266.264)" fill="none" stroke="#6c6c6c" stroke-width="1">
        <circle cx="21" cy="21" r="21" stroke="none"/>
        <circle cx="21" cy="21" r="20.5" fill="none"/>
      </g>
      <path id="路径_97285" data-name="路径 97285" d="M-683,17856.689v-83.148" transform="translate(1688 -16569.926)" fill="none" stroke="#172787" stroke-width="1"/>
      <text id="上海高金金融研究院_SAIFR_" data-name="上海高金金融研究院(SAIFR)" transform="translate(917.5 1174.264)" fill="#666" font-size="14" font-family="SourceHanSansCN-Regular, Source Han Sans CN"><tspan x="0" y="0">上海高金金融研究院(SAIFR)</tspan></text>
    </g>
    <g id="组_167837" data-name="组 167837" transform="translate(30.5)">
      <rect id="矩形_151874-2" data-name="矩形 151874" width="166" height="1" transform="translate(1333.5 1187.264)" fill="#162789"/>
      <text id="_2024" data-name="2024" transform="translate(1387.5 1347.906)" fill="#162787" font-size="24" font-family="PingFang SC Bold, PingFang SC"><tspan x="0" y="0">2024</tspan></text>
      <circle id="椭圆_168-2" data-name="椭圆 168" cx="5" cy="5" r="5" transform="translate(1411.5 1282.264)" fill="#162789"/>
      <circle id="椭圆_169-2" data-name="椭圆 169" cx="5" cy="5" r="5" transform="translate(1411.5 1198.264)" fill="#162789"/>
      <g id="椭圆_170-2" data-name="椭圆 170" transform="translate(1404.5 1275.264)" fill="none" stroke="#172787" stroke-width="1">
        <circle cx="12" cy="12" r="12" stroke="none"/>
        <circle cx="12" cy="12" r="11.5" fill="none"/>
      </g>
      <g id="椭圆_171-2" data-name="椭圆 171" transform="translate(1395.5 1266.264)" fill="none" stroke="#6c6c6c" stroke-width="1">
        <circle cx="21" cy="21" r="21" stroke="none"/>
        <circle cx="21" cy="21" r="20.5" fill="none"/>
      </g>
      <path id="路径_97284-2" data-name="路径 97284" d="M66,0A33,33,0,0,0,33,33" transform="translate(1350.5 1253.264)" fill="none" stroke="#6c6c6c" stroke-width="1"/>
      <path id="路径_97285-2" data-name="路径 97285" d="M-683,17856.689v-83.148" transform="translate(2099.5 -16569.926)" fill="none" stroke="#172787" stroke-width="1"/>
      <text id="上海市科技与数字金融_重点实验室_筹_" data-name="上海市科技与数字金融
重点实验室（筹）" transform="translate(1416.5 1155.264)" fill="#666" font-size="14" font-family="SourceHanSansCN-Regular, Source Han Sans CN"><tspan x="-70" y="0">上海市科技与数字金融</tspan><tspan x="-56" y="20">重点实验室（筹）</tspan></text>
    </g>
    <g id="组_167834" data-name="组 167834" transform="translate(79.5)">
      <rect id="矩形_151873" data-name="矩形 151873" width="227" height="1" transform="translate(588.5 1429.621)" fill="#c6a86f"/>
      <text id="_2009_08_12" data-name="2009/08/12" transform="translate(632.5 1238.264)" fill="#c6a86f" font-size="24" font-family="PingFang SC Bold, PingFang SC"><tspan x="0" y="0">2009/08/12</tspan></text>
      <circle id="椭圆_164-2" data-name="椭圆 164" cx="5" cy="5" r="5" transform="translate(697 1281.264)" fill="#c6a86f"/>
      <circle id="椭圆_167-2" data-name="椭圆 167" cx="5" cy="5" r="5" transform="translate(697 1365.264)" fill="#c6a86f"/>
      <g id="椭圆_165-2" data-name="椭圆 165" transform="translate(690 1274.264)" fill="none" stroke="#c6a86f" stroke-width="1">
        <circle cx="12" cy="12" r="12" stroke="none"/>
        <circle cx="12" cy="12" r="11.5" fill="none"/>
      </g>
      <g id="椭圆_166-2" data-name="椭圆 166" transform="translate(681 1265.264)" fill="none" stroke="#6c6c6c" stroke-width="1">
        <circle cx="21" cy="21" r="21" stroke="none"/>
        <circle cx="21" cy="21" r="20.5" fill="none"/>
      </g>
      <path id="路径_97282-2" data-name="路径 97282" d="M33,0A33,33,0,0,1,66,33" transform="translate(669 1254.264)" fill="none" stroke="#6c6c6c" stroke-width="1"/>
      <path id="路径_97283-2" data-name="路径 97283" d="M-683,17773.541v83.148" transform="translate(1385 -16486.777)" fill="none" stroke="#c6a86f" stroke-width="1"/>
      <text id="上海交通大学中国金融研究院_CAFR_" data-name="上海交通大学中国金融研究院(CAFR)" transform="translate(588.5 1417.264)" fill="#666" font-size="14" font-family="SourceHanSansCN-Regular, Source Han Sans CN"><tspan x="0" y="0">上海交通大学中国金融研究院(CAFR)</tspan></text>
    </g>
    <g id="组_167838" data-name="组 167838" transform="translate(47.5)">
      <path id="路径_97286" data-name="路径 97286" d="M66,33A33,33,0,0,1,33,0" transform="translate(1117.5 1286.264)" fill="none" stroke="#6c6c6c" stroke-width="1"/>
      <rect id="矩形_151875" data-name="矩形 151875" width="129" height="1" transform="translate(1118.5 1429.621)" fill="#c6a86f"/>
      <text id="_2024_03_23" data-name="2024/03/23" transform="translate(1114 1239.189)" fill="#c6a86f" font-size="24" font-family="PingFang SC Bold, PingFang SC"><tspan x="0" y="0">2024/03/23</tspan></text>
      <circle id="椭圆_174" data-name="椭圆 174" cx="5" cy="5" r="5" transform="translate(1178.5 1281.264)" fill="#c6a86f"/>
      <circle id="椭圆_175" data-name="椭圆 175" cx="5" cy="5" r="5" transform="translate(1178.5 1365.264)" fill="#c6a86f"/>
      <g id="椭圆_173" data-name="椭圆 173" transform="translate(1171.5 1274.264)" fill="none" stroke="#c6a86f" stroke-width="1">
        <circle cx="12" cy="12" r="12" stroke="none"/>
        <circle cx="12" cy="12" r="11.5" fill="none"/>
      </g>
      <g id="椭圆_172" data-name="椭圆 172" transform="translate(1162.5 1265.264)" fill="none" stroke="#6c6c6c" stroke-width="1">
        <circle cx="21" cy="21" r="21" stroke="none"/>
        <circle cx="21" cy="21" r="20.5" fill="none"/>
      </g>
      <path id="路径_97287" data-name="路径 97287" d="M-683,17773.541v83.148" transform="translate(1866.5 -16486.777)" fill="none" stroke="#c6a86f" stroke-width="1"/>
      <text id="上交大苏州创新院_数字金融中心_RCDF_" data-name="上交大苏州创新院
数字金融中心(RCDF) " transform="translate(1188.5 1398.264)" fill="#666" font-size="14" font-family="SourceHanSansCN-Regular, Source Han Sans CN"><tspan x="-61" y="0">上交大苏州创新院</tspan><tspan x="-69.584" y="20">数字金融中心(RCDF) </tspan></text>
    </g>
  </g>
</svg>
