<svg xmlns="http://www.w3.org/2000/svg" xmlns:xlink="http://www.w3.org/1999/xlink" width="631.5" height="594.404" viewBox="0 0 631.5 594.404">
  <defs>
    <linearGradient id="linear-gradient" x1="0.5" y1="0.997" x2="0" gradientUnits="objectBoundingBox">
      <stop offset="0" stop-color="#6c6c6c" stop-opacity="0.18"/>
      <stop offset="0.475" stop-color="#525252"/>
      <stop offset="1" stop-color="#363636" stop-opacity="0.161"/>
    </linearGradient>
  </defs>
  <g id="组_170396" data-name="组 170396" transform="translate(21378.5 -5237.09)">
    <rect id="矩形_153918" data-name="矩形 153918" width="1.621" height="501.904" transform="translate(-21345.811 5268.59)" fill="url(#linear-gradient)"/>
    <rect id="矩形_153917" data-name="矩形 153917" width="484" height="1" transform="translate(-21231 5331.59)" fill="#162789"/>
    <text id="_2009_04_19" data-name="2009/04/19" transform="translate(-21231 5281.59)" fill="#162787" font-size="28" font-family="PingFang SC Bold, PingFang SC"><tspan x="0" y="0">2009/04/19</tspan></text>
    <g id="组_167037" data-name="组 167037" transform="translate(-18722.48 5098.09) rotate(90)">
      <circle id="椭圆_344" data-name="椭圆 344" cx="5" cy="5" r="5" transform="translate(167.5 2617.52)" fill="#162789"/>
      <circle id="椭圆_345" data-name="椭圆 345" cx="5" cy="5" r="5" transform="translate(167.5 2533.52)" fill="#162789"/>
      <g id="椭圆_346" data-name="椭圆 346" transform="translate(160.5 2610.52)" fill="none" stroke="#172787" stroke-width="1">
        <circle cx="12" cy="12" r="12" stroke="none"/>
        <circle cx="12" cy="12" r="11.5" fill="none"/>
      </g>
      <g id="椭圆_343" data-name="椭圆 343" transform="translate(151.5 2601.52)" fill="none" stroke="#6c6c6c" stroke-width="1">
        <circle cx="21" cy="21" r="21" stroke="none"/>
        <circle cx="21" cy="21" r="20.5" fill="none"/>
      </g>
      <path id="路径_102699" data-name="路径 102699" d="M66,33A33,33,0,0,1,33,0" transform="translate(106.5 2621.52)" fill="none" stroke="#6c6c6c" stroke-width="1"/>
      <path id="路径_102700" data-name="路径 102700" d="M-683,17856.689v-83.148" transform="translate(855.5 -15234.67)" fill="none" stroke="#172787" stroke-width="1"/>
    </g>
    <text id="上海交通大学上海高级金融学院_SAIF_" data-name="上海交通大学上海高级金融学院(SAIF)" transform="translate(-21231 5319.59)" fill="#666" font-size="20" font-family="SourceHanSansCN-Regular, Source Han Sans CN"><tspan x="0" y="0">上海交通大学上海高级金融学院(SAIF)</tspan></text>
    <rect id="矩形_153919" data-name="矩形 153919" width="484" height="1" transform="translate(-21231 5457.09)" fill="#c6a86f"/>
    <text id="_2009_08_12" data-name="2009/08/12" transform="translate(-21231 5407.09)" fill="#c6a86f" font-size="28" font-family="PingFang SC Bold, PingFang SC"><tspan x="0" y="0">2009/08/12</tspan></text>
    <g id="组_167038" data-name="组 167038" transform="translate(-24184.484 6017.59) rotate(-90)">
      <circle id="椭圆_347" data-name="椭圆 347" cx="5" cy="5" r="5" transform="translate(619 2834.484)" fill="#c6a86f"/>
      <circle id="椭圆_350" data-name="椭圆 350" cx="5" cy="5" r="5" transform="translate(619 2918.484)" fill="#c6a86f"/>
      <g id="椭圆_348" data-name="椭圆 348" transform="translate(612 2827.484)" fill="none" stroke="#c6a86f" stroke-width="1">
        <circle cx="12" cy="12" r="12" stroke="none"/>
        <circle cx="12" cy="12" r="11.5" fill="none"/>
      </g>
      <g id="椭圆_349" data-name="椭圆 349" transform="translate(603 2818.484)" fill="none" stroke="#6c6c6c" stroke-width="1">
        <circle cx="21" cy="21" r="21" stroke="none"/>
        <circle cx="21" cy="21" r="20.5" fill="none"/>
      </g>
      <path id="路径_102701" data-name="路径 102701" d="M33,33A33,33,0,0,0,66,0" transform="translate(591 2839.484)" fill="none" stroke="#6c6c6c" stroke-width="1"/>
      <path id="路径_102702" data-name="路径 102702" d="M-683,17773.541v83.148" transform="translate(1307 -14933.558)" fill="none" stroke="#c6a86f" stroke-width="1"/>
    </g>
    <text id="上海交通大学中国金融研究院_CAFR_" data-name="上海交通大学中国金融研究院(CAFR)" transform="translate(-21231 5445.09)" fill="#666" font-size="20" font-family="SourceHanSansCN-Regular, Source Han Sans CN"><tspan x="0" y="0">上海交通大学中国金融研究院(CAFR)</tspan></text>
    <rect id="矩形_153920" data-name="矩形 153920" width="484" height="1" transform="translate(-21231 5565.381)" fill="#162789"/>
    <rect id="矩形_153924" data-name="矩形 153924" width="484" height="1" transform="translate(-21231 5830.494)" fill="#162789"/>
    <text id="_2019_04_15" data-name="2019/04/15" transform="translate(-21231 5515.09)" fill="#162788" font-size="28" font-family="PingFang SC Bold, PingFang SC"><tspan x="0" y="0">2019/04/15</tspan></text>
    <text id="_2024" data-name="2024" transform="translate(-21231 5780.494)" fill="#162788" font-size="28" font-family="PingFang SC Bold, PingFang SC"><tspan x="0" y="0">2024</tspan></text>
    <g id="组_167039" data-name="组 167039" transform="translate(-18474.791 5076.09) rotate(90)">
      <circle id="椭圆_351" data-name="椭圆 351" cx="5" cy="5" r="5" transform="translate(426 2864.709)" fill="#162789"/>
      <circle id="椭圆_352" data-name="椭圆 352" cx="5" cy="5" r="5" transform="translate(426 2780.709)" fill="#162789"/>
      <g id="椭圆_353" data-name="椭圆 353" transform="translate(419 2857.709)" fill="none" stroke="#172787" stroke-width="1">
        <circle cx="12" cy="12" r="12" stroke="none"/>
        <circle cx="12" cy="12" r="11.5" fill="none"/>
      </g>
      <g id="椭圆_354" data-name="椭圆 354" transform="translate(410 2848.709)" fill="none" stroke="#6c6c6c" stroke-width="1">
        <circle cx="21" cy="21" r="21" stroke="none"/>
        <circle cx="21" cy="21" r="20.5" fill="none"/>
      </g>
      <path id="路径_102703" data-name="路径 102703" d="M33,0A33,33,0,0,1,66,33" transform="translate(397.5 2837.709)" fill="none" stroke="#6c6c6c" stroke-width="1"/>
      <path id="路径_102704" data-name="路径 102704" d="M-683,17856.689v-83.148" transform="translate(1114 -14987.48)" fill="none" stroke="#172787" stroke-width="1"/>
    </g>
    <g id="组_167041" data-name="组 167041" transform="translate(-18474.791 5337.463) rotate(90)">
      <circle id="椭圆_351-2" data-name="椭圆 351" cx="5" cy="5" r="5" transform="translate(426 2864.709)" fill="#162789"/>
      <circle id="椭圆_352-2" data-name="椭圆 352" cx="5" cy="5" r="5" transform="translate(426 2780.709)" fill="#162789"/>
      <g id="椭圆_353-2" data-name="椭圆 353" transform="translate(419 2857.709)" fill="none" stroke="#172787" stroke-width="1">
        <circle cx="12" cy="12" r="12" stroke="none"/>
        <circle cx="12" cy="12" r="11.5" fill="none"/>
      </g>
      <g id="椭圆_354-2" data-name="椭圆 354" transform="translate(410 2848.709)" fill="none" stroke="#6c6c6c" stroke-width="1">
        <circle cx="21" cy="21" r="21" stroke="none"/>
        <circle cx="21" cy="21" r="20.5" fill="none"/>
      </g>
      <path id="路径_102703-2" data-name="路径 102703" d="M66,33A33,33,0,0,1,33,0" transform="translate(365 2869.209)" fill="none" stroke="#6c6c6c" stroke-width="1"/>
      <path id="路径_102704-2" data-name="路径 102704" d="M-683,17856.689v-83.148" transform="translate(1114 -14987.48)" fill="none" stroke="#172787" stroke-width="1"/>
    </g>
    <text id="上海高金金融研究院_SAIFR_" data-name="上海高金金融研究院(SAIFR)" transform="translate(-21231 5553.09)" fill="#666" font-size="20" font-family="SourceHanSansCN-Regular, Source Han Sans CN"><tspan x="0" y="0">上海高金金融研究院(SAIFR)</tspan></text>
    <text id="上海市科技与数字金融重点实验室_筹_" data-name="上海市科技与数字金融重点实验室（筹）" transform="translate(-21231 5818.494)" fill="#666" font-size="20" font-family="SourceHanSansCN-Regular, Source Han Sans CN"><tspan x="0" y="0">上海市科技与数字金融重点实验室（筹）</tspan></text>
    <rect id="矩形_153921" data-name="矩形 153921" width="485" height="1" transform="translate(-21232 5676.463)" fill="#c6a86f"/>
    <text id="_2024_03_23" data-name="2024/03/23" transform="translate(-21232 5626.172)" fill="#c6a86f" font-size="28" font-family="PingFang SC Bold, PingFang SC"><tspan x="0" y="0">2024/03/23</tspan></text>
    <text id="上交大苏州创新院数字金融中心_RCDF_" data-name="上交大苏州创新院数字金融中心(RCDF) " transform="translate(-21232 5664.172)" fill="#666" font-size="20" font-family="SourceHanSansCN-Regular, Source Han Sans CN"><tspan x="0" y="0">上交大苏州创新院数字金融中心(RCDF) </tspan></text>
    <g id="组_167040" data-name="组 167040" transform="translate(-24184.484 6239.381) rotate(-90)">
      <circle id="椭圆_347-2" data-name="椭圆 347" cx="5" cy="5" r="5" transform="translate(619 2834.484)" fill="#c6a86f"/>
      <circle id="椭圆_350-2" data-name="椭圆 350" cx="5" cy="5" r="5" transform="translate(619 2918.484)" fill="#c6a86f"/>
      <g id="椭圆_348-2" data-name="椭圆 348" transform="translate(612 2827.484)" fill="none" stroke="#c6a86f" stroke-width="1">
        <circle cx="12" cy="12" r="12" stroke="none"/>
        <circle cx="12" cy="12" r="11.5" fill="none"/>
      </g>
      <g id="椭圆_349-2" data-name="椭圆 349" transform="translate(603 2818.484)" fill="none" stroke="#6c6c6c" stroke-width="1">
        <circle cx="21" cy="21" r="21" stroke="none"/>
        <circle cx="21" cy="21" r="20.5" fill="none"/>
      </g>
      <path id="路径_102701-2" data-name="路径 102701" d="M66,0A33,33,0,0,0,33,33" transform="translate(552 2806.484)" fill="none" stroke="#6c6c6c" stroke-width="1"/>
      <path id="路径_102702-2" data-name="路径 102702" d="M-683,17773.541v83.148" transform="translate(1307 -14933.558)" fill="none" stroke="#c6a86f" stroke-width="1"/>
    </g>
  </g>
</svg>
